<?xml version="1.0" encoding="utf-8"?>
<!-- Generator: Adobe Illustrator 26.5.0, SVG Export Plug-In . SVG Version: 6.00 Build 0)  -->
<svg version="1.1" id="圖層_1" xmlns="http://www.w3.org/2000/svg" xmlns:xlink="http://www.w3.org/1999/xlink" x="0px" y="0px"
	 viewBox="0 0 96 96" style="enable-background:new 0 0 96 96;" xml:space="preserve">
<g>
	<path d="M82.2,22.2c2.4-2.3,2.4-6.1,0-8.5s-6.1-2.4-8.5,0c0,0,0,0,0,0l-4.3,4.3C63,14.1,55.6,12,48,12C25.8,12,12.3,27.7,1,44.7
		c-1.3,2-1.3,4.6,0,6.7c4.5,7,9.8,13.5,15.8,19.4l-3.1,3.1c-2.4,2.3-2.4,6.1,0,8.5s6.1,2.4,8.5,0c0,0,0,0,0,0L82.2,22.2z M13.3,48
		c12.1-17.2,22-24,34.7-24c4.4,0,8.7,1,12.7,2.8l-9.6,9.6c-1-0.3-2-0.4-3.1-0.4c-6.6,0-12,5.4-12,12c0,1,0.1,2.1,0.4,3.1L25.3,62.2
		C20.8,57.9,16.8,53.2,13.3,48z"/>
	<path d="M95,44.7c-2.4-3.6-5-7.2-7.7-10.6l-8.5,8.5c1.3,1.7,2.6,3.4,4,5.3C71.2,64.5,61.5,71.3,49.5,71.9l-11,11
		c3.1,0.7,6.3,1.1,9.4,1.1c22.2,0,35.7-15.7,47-32.7C96.3,49.3,96.3,46.7,95,44.7z"/>
</g>
</svg>
